<?xml version="1.0" encoding="UTF-8"?><svg id="a" xmlns="http://www.w3.org/2000/svg" width="176" height="240" viewBox="0 0 176 240"><rect x="48" width="16" height="16" fill="#231f20"/><rect x="64" width="16" height="16" fill="#231f20"/><rect x="80" width="16" height="16" fill="#231f20"/><rect x="96" width="16" height="16" fill="#231f20"/><rect x="112" width="16" height="16" fill="#231f20"/><rect x="128" width="16" height="16" fill="#231f20"/><rect x="144" width="16" height="16" fill="#231f20"/><rect x="160" width="16" height="16" fill="#231f20"/><rect x="160" y="16" width="16" height="16" fill="#231f20"/><rect x="48" y="16" width="16" height="16" fill="#231f20"/><rect x="144" y="32" width="16" height="16" fill="#231f20"/><rect x="128" y="48" width="16" height="16" fill="#231f20"/><rect x="112" y="64" width="16" height="16" fill="#231f20"/><rect x="32" y="32" width="16" height="16" fill="#231f20"/><rect x="32" y="48" width="16" height="16" fill="#231f20"/><rect x="16" y="64" width="16" height="16" fill="#231f20"/><rect x="16" y="80" width="16" height="16" fill="#231f20"/><rect y="96" width="16" height="16" fill="#231f20"/><rect y="112" width="16" height="16" fill="#231f20"/><rect x="16" y="112" width="16" height="16" fill="#231f20"/><rect x="32" y="112" width="16" height="16" fill="#231f20"/><rect x="48" y="112" width="16" height="16" fill="#231f20"/><rect x="96" y="80" width="16" height="16" fill="#231f20"/><rect x="112" y="80" width="16" height="16" fill="#231f20"/><rect x="128" y="80" width="16" height="16" fill="#231f20"/><rect x="144" y="80" width="16" height="16" fill="#231f20"/><rect x="144" y="95.99" width="16" height="16" fill="#231f20"/><rect x="128" y="111.99" width="16" height="16" fill="#231f20"/><rect x="112" y="127.99" width="16" height="16" fill="#231f20"/><rect x="96" y="143.99" width="16" height="16" fill="#231f20"/><rect x="80" y="159.99" width="16" height="16" fill="#231f20"/><rect x="48" y="128" width="16" height="16" fill="#231f20"/><rect x="16" y="224" width="16" height="16" fill="#231f20"/><rect x="32" y="144" width="16" height="16" fill="#231f20"/><rect x="32" y="160" width="16" height="16" fill="#231f20"/><rect x="16" y="176" width="16" height="16" fill="#231f20"/><rect x="16" y="192" width="16" height="16" fill="#231f20"/><rect y="208" width="16" height="16" fill="#231f20"/><rect y="224" width="16" height="16" fill="#231f20"/><rect x="64" y="176" width="16" height="16" fill="#231f20"/><rect x="48" y="192" width="16" height="16" fill="#231f20"/><rect x="32" y="208" width="16" height="16" fill="#231f20"/><rect x="64" y="16" width="80" height="16" fill="#1eff4f"/><rect x="48" y="32" width="16" height="32" fill="#1eff4f"/><rect x="32" y="63.99" width="16" height="32" fill="#1eff4f"/><rect x="16" y="95.99" width="112" height="16" fill="#1eff4f"/><rect x="64" y="111.99" width="16" height="32" fill="#1eff4f"/><rect x="48" y="143.99" width="16" height="32" fill="#1eff4f"/><rect x="32" y="176" width="16" height="16" fill="#1eff4f"/><rect x="144" y="16" width="16" height="16" fill="#1eff4f"/><rect x="112" y="32" width="32" height="16" fill="#1eff4f"/><rect x="112" y="48" width="16" height="16" fill="#1eff4f"/><rect x="96" y="64" width="16" height="16" fill="#1eff4f"/><rect x="80" y="80" width="16" height="16" fill="#1eff4f"/><rect x="128" y="96" width="16" height="16" fill="#1eff4f"/><rect x="112" y="112" width="16" height="16" fill="#1eff4f"/><rect x="96" y="128" width="16" height="16" fill="#1eff4f"/><rect x="80" y="143.99" width="16" height="16" fill="#1eff4f"/><rect x="64" y="160" width="16" height="16" fill="#1eff4f"/><rect x="48" y="176" width="16" height="16" fill="#1eff4f"/><rect x="32" y="192.01" width="16" height="16" fill="#1eff4f"/><rect x="16" y="208" width="16" height="16" fill="#1eff4f"/><rect x="64" y="143.99" width="16" height="16" fill="#1eff4f"/><rect x="80" y="112" width="32" height="16" fill="#1eff4f"/><rect x="80" y="127.99" width="16" height="16" fill="#1eff4f"/><rect x="64" y="32" width="48" height="32" fill="#1eff4f"/><rect x="48" y="64" width="48" height="16" fill="#1eff4f"/><rect x="48" y="80" width="32" height="16" fill="#1eff4f"/></svg>