<svg width="444" height="350" xmlns="http://www.w3.org/2000/svg" xmlns:xlink="http://www.w3.org/1999/xlink" overflow="hidden"><defs><clipPath id="clip0"><rect x="428" y="127" width="444" height="350"/></clipPath><clipPath id="clip1"><rect x="428" y="127" width="443" height="327"/></clipPath><clipPath id="clip2"><rect x="475" y="169" width="382" height="259"/></clipPath><clipPath id="clip3"><rect x="475" y="169" width="382" height="259"/></clipPath><clipPath id="clip4"><rect x="475" y="169" width="382" height="259"/></clipPath><clipPath id="clip5"><rect x="428" y="127" width="443" height="327"/></clipPath><clipPath id="clip6"><rect x="428" y="127" width="443" height="327"/></clipPath><clipPath id="clip7"><rect x="428" y="127" width="443" height="327"/></clipPath><clipPath id="clip8"><rect x="428" y="127" width="443" height="327"/></clipPath><clipPath id="clip9"><rect x="428" y="127" width="443" height="327"/></clipPath><clipPath id="clip10"><rect x="428" y="127" width="443" height="327"/></clipPath><clipPath id="clip11"><rect x="428" y="127" width="443" height="327"/></clipPath><clipPath id="clip12"><rect x="428" y="127" width="443" height="327"/></clipPath><clipPath id="clip13"><rect x="428" y="127" width="443" height="327"/></clipPath><clipPath id="clip14"><rect x="428" y="127" width="443" height="327"/></clipPath><clipPath id="clip15"><rect x="428" y="127" width="443" height="327"/></clipPath><clipPath id="clip16"><rect x="428" y="127" width="443" height="327"/></clipPath><clipPath id="clip17"><rect x="428" y="127" width="443" height="327"/></clipPath><clipPath id="clip18"><rect x="428" y="127" width="443" height="327"/></clipPath><clipPath id="clip19"><rect x="428" y="127" width="443" height="327"/></clipPath><clipPath id="clip20"><rect x="428" y="127" width="443" height="327"/></clipPath><clipPath id="clip21"><rect x="428" y="127" width="443" height="327"/></clipPath><clipPath id="clip22"><rect x="428" y="127" width="443" height="327"/></clipPath><clipPath id="clip23"><rect x="428" y="127" width="443" height="327"/></clipPath><clipPath id="clip24"><rect x="428" y="127" width="443" height="327"/></clipPath><clipPath id="clip25"><rect x="428" y="127" width="443" height="327"/></clipPath><clipPath id="clip26"><rect x="428" y="127" width="443" height="327"/></clipPath></defs><g clip-path="url(#clip0)" transform="translate(-428 -127)"><text font-family="Arial,Arial_MSFontService,sans-serif" font-weight="400" font-size="9" transform="translate(489.6 468)">Estimated with chiapower.org<tspan fill="#0097A7" font-size="9" x="227.556" y="0">Digiconimist</tspan></text><path d="M717.156 469.366 733.822 469.366 750.489 469.366 767.156 469.366 767.156 470.366 750.489 470.366 733.822 470.366 717.156 470.366Z" fill="#0097A7" fill-rule="evenodd"/><text fill="#0097A7" font-family="Arial,Arial_MSFontService,sans-serif" font-weight="400" font-size="9" transform="translate(780.1 468)">https://cbeci.org/</text><path d="M780.1 469.366 797.35 469.366 814.6 469.366 831.85 469.366 849.1 469.366 849.1 470.366 831.85 470.366 814.6 470.366 797.35 470.366 780.1 470.366Z" fill="#0097A7" fill-rule="evenodd"/><text font-family="Arial,Arial_MSFontService,sans-serif" font-weight="400" font-size="9" transform="translate(650.621 468)">Gartner</text><g clip-path="url(#clip1)"><path d="M475.5 398.5 856.5 398.5M475.5 370.5 856.5 370.5M475.5 341.5 856.5 341.5M475.5 312.5 856.5 312.5M475.5 283.5 856.5 283.5M475.5 255.5 856.5 255.5M475.5 226.5 856.5 226.5M475.5 197.5 856.5 197.5M475.5 169.5 856.5 169.5" stroke="#D9D9D9" stroke-linejoin="round" stroke-miterlimit="10" fill="none"/></g><g clip-path="url(#clip2)"><rect x="731" y="345" width="24" height="83" fill="#FF9800"/></g><g clip-path="url(#clip3)"><rect x="807" y="208" width="24" height="220" fill="#F44336"/></g><g clip-path="url(#clip4)"><path d="M502 427 526 427 526 428 502 428ZM578 425 602 425 602 428 578 428ZM654 420 678 420 678 428 654 428Z" fill="#3AAC59"/></g><g clip-path="url(#clip5)"><path d="M475.5 427.5 856.5 427.5" stroke="#D9D9D9" stroke-linejoin="round" stroke-miterlimit="10" fill="none" fill-rule="evenodd"/></g><g clip-path="url(#clip6)"><text fill="#404040" font-family="Arial,Arial_MSFontService,sans-serif" font-weight="400" font-size="11" transform="translate(507.859 419)">11</text></g><g clip-path="url(#clip7)"><text fill="#404040" font-family="Arial,Arial_MSFontService,sans-serif" font-weight="400" font-size="11" transform="translate(581.158 417)">150</text></g><g clip-path="url(#clip8)"><text fill="#404040" font-family="Arial,Arial_MSFontService,sans-serif" font-weight="400" font-size="11" transform="translate(657.423 412)">520</text></g><g clip-path="url(#clip9)"><text fill="#404040" font-family="Arial,Arial_MSFontService,sans-serif" font-weight="400" font-size="11" transform="translate(729.239 337)">5,718</text></g><g clip-path="url(#clip10)"><text fill="#404040" font-family="Arial,Arial_MSFontService,sans-serif" font-weight="400" font-size="11" transform="translate(802.537 200)">15,260</text></g><g clip-path="url(#clip11)"><text fill="#595959" font-family="Arial,Arial_MSFontService,sans-serif" font-weight="400" font-size="11" transform="translate(460.552 431)">0</text></g><g clip-path="url(#clip12)"><text fill="#595959" font-family="Arial,Arial_MSFontService,sans-serif" font-weight="400" font-size="11" transform="translate(442.752 403)">2000</text></g><g clip-path="url(#clip13)"><text fill="#595959" font-family="Arial,Arial_MSFontService,sans-serif" font-weight="400" font-size="11" transform="translate(442.752 374)">4000</text></g><g clip-path="url(#clip14)"><text fill="#595959" font-family="Arial,Arial_MSFontService,sans-serif" font-weight="400" font-size="11" transform="translate(442.752 345)">6000</text></g><g clip-path="url(#clip15)"><text fill="#595959" font-family="Arial,Arial_MSFontService,sans-serif" font-weight="400" font-size="11" transform="translate(442.752 316)">8000</text></g><g clip-path="url(#clip16)"><text fill="#595959" font-family="Arial,Arial_MSFontService,sans-serif" font-weight="400" font-size="11" transform="translate(436.819 288)">10000</text></g><g clip-path="url(#clip17)"><text fill="#595959" font-family="Arial,Arial_MSFontService,sans-serif" font-weight="400" font-size="11" transform="translate(436.819 259)">12000</text></g><g clip-path="url(#clip18)"><text fill="#595959" font-family="Arial,Arial_MSFontService,sans-serif" font-weight="400" font-size="11" transform="translate(436.819 230)">14000</text></g><g clip-path="url(#clip19)"><text fill="#595959" font-family="Arial,Arial_MSFontService,sans-serif" font-weight="400" font-size="11" transform="translate(436.819 202)">16000</text></g><g clip-path="url(#clip20)"><text fill="#595959" font-family="Arial,Arial_MSFontService,sans-serif" font-weight="400" font-size="11" transform="translate(436.819 173)">18000</text></g><g clip-path="url(#clip21)"><text fill="#595959" font-family="Arial,Arial_MSFontService,sans-serif" font-weight="400" font-size="11" transform="translate(502.826 444)">Chia</text></g><g clip-path="url(#clip22)"><text fill="#595959" font-family="Arial,Arial_MSFontService,sans-serif" font-weight="400" font-size="11" transform="translate(555.661 444)">Chia at 100EB</text></g><g clip-path="url(#clip23)"><text fill="#595959" font-family="Arial,Arial_MSFontService,sans-serif" font-weight="400" font-size="11" transform="translate(634.606 444)">all HDD 2021</text></g><g clip-path="url(#clip24)"><text fill="#595959" font-family="Arial,Arial_MSFontService,sans-serif" font-weight="400" font-size="11" transform="translate(719.462 444)">Ethereum</text></g><g clip-path="url(#clip25)"><text fill="#595959" font-family="Arial,Arial_MSFontService,sans-serif" font-weight="400" font-size="11" transform="translate(802.847 444)">Bitcoin</text></g><g clip-path="url(#clip26)"><text fill="#595959" font-family="Arial,Arial_MSFontService,sans-serif" font-weight="400" font-size="13" transform="translate(542.493 150)">Average Network Power (MegaWatts)</text></g></g></svg>