<svg width="698" height="500" xmlns="http://www.w3.org/2000/svg" xmlns:xlink="http://www.w3.org/1999/xlink" overflow="hidden"><defs><clipPath id="clip0"><rect x="527" y="126" width="698" height="500"/></clipPath><clipPath id="clip1"><rect x="527" y="126" width="697" height="475"/></clipPath><clipPath id="clip2"><rect x="583" y="179" width="627" height="390"/></clipPath><clipPath id="clip3"><rect x="583" y="179" width="627" height="390"/></clipPath><clipPath id="clip4"><rect x="583" y="179" width="627" height="390"/></clipPath><clipPath id="clip5"><rect x="527" y="126" width="697" height="475"/></clipPath><clipPath id="clip6"><rect x="527" y="126" width="697" height="475"/></clipPath><clipPath id="clip7"><rect x="527" y="126" width="697" height="475"/></clipPath><clipPath id="clip8"><rect x="527" y="126" width="697" height="475"/></clipPath><clipPath id="clip9"><rect x="527" y="126" width="697" height="475"/></clipPath><clipPath id="clip10"><rect x="527" y="126" width="697" height="475"/></clipPath><clipPath id="clip11"><rect x="527" y="126" width="697" height="475"/></clipPath><clipPath id="clip12"><rect x="527" y="126" width="697" height="475"/></clipPath><clipPath id="clip13"><rect x="527" y="126" width="697" height="475"/></clipPath><clipPath id="clip14"><rect x="527" y="126" width="697" height="475"/></clipPath><clipPath id="clip15"><rect x="527" y="126" width="697" height="475"/></clipPath><clipPath id="clip16"><rect x="527" y="126" width="697" height="475"/></clipPath><clipPath id="clip17"><rect x="527" y="126" width="697" height="475"/></clipPath><clipPath id="clip18"><rect x="527" y="126" width="697" height="475"/></clipPath><clipPath id="clip19"><rect x="527" y="126" width="697" height="475"/></clipPath><clipPath id="clip20"><rect x="527" y="126" width="697" height="475"/></clipPath><clipPath id="clip21"><rect x="527" y="126" width="697" height="475"/></clipPath><clipPath id="clip22"><rect x="527" y="126" width="697" height="475"/></clipPath><clipPath id="clip23"><rect x="527" y="126" width="697" height="475"/></clipPath><clipPath id="clip24"><rect x="527" y="126" width="697" height="475"/></clipPath><clipPath id="clip25"><rect x="527" y="126" width="697" height="475"/></clipPath><clipPath id="clip26"><rect x="527" y="126" width="697" height="475"/></clipPath><clipPath id="clip27"><rect x="527" y="126" width="697" height="475"/></clipPath></defs><g clip-path="url(#clip0)" transform="translate(-527 -126)"><text fill="#525252" font-family="Open Sans,Open Sans_MSFontService,sans-serif" font-weight="300" font-size="13" transform="translate(624.76 614)">Estimated with chiapower.org<tspan fill="#00C7FD" font-size="13" x="361.399" y="-1">Digiconimist</tspan></text><path d="M986.159 614.379 1004.41 614.379 1022.66 614.379 1040.91 614.379 1059.16 614.379 1059.16 615.379 1040.91 615.379 1022.66 615.379 1004.41 615.379 986.159 615.379Z" fill="#00C7FD" fill-rule="evenodd"/><text fill="#00C7FD" font-family="Open Sans,Open Sans_MSFontService,sans-serif" font-weight="300" font-size="13" transform="translate(1100.66 613)">https://cbeci.org/</text><path d="M1100.66 614.383 1126.16 614.383 1151.66 614.383 1177.16 614.383 1202.66 614.383 1202.66 615.383 1177.16 615.383 1151.66 615.383 1126.16 615.383 1100.66 615.383Z" fill="#00C7FD" fill-rule="evenodd"/><text fill="#525252" font-family="Open Sans,Open Sans_MSFontService,sans-serif" font-weight="300" font-size="13" transform="translate(871.263 614)">Gartner</text><g clip-path="url(#clip1)"><path d="M583.5 529.5 1209.5 529.5M583.5 490.5 1209.5 490.5M583.5 451.5 1209.5 451.5M583.5 412.5 1209.5 412.5M583.5 373.5 1209.5 373.5M583.5 334.5 1209.5 334.5M583.5 295.5 1209.5 295.5M583.5 256.5 1209.5 256.5M583.5 218.5 1209.5 218.5M583.5 179.5 1209.5 179.5" stroke="#E5E5E5" stroke-linejoin="round" stroke-miterlimit="10" fill="none"/></g><g clip-path="url(#clip2)"><rect x="1002" y="470" width="39" height="98" fill="#FF9800"/></g><g clip-path="url(#clip3)"><rect x="1127" y="232" width="40" height="336" fill="#EF5350"/></g><g clip-path="url(#clip4)"><path d="M626 568 665 568 665 568 626 568ZM751 567 791 567 791 568 751 568ZM877 557 916 557 916 568 877 568Z" fill="#00B141"/></g><g clip-path="url(#clip5)"><path d="M583.5 568.5 1209.5 568.5" stroke="#E5E5E5" stroke-linejoin="round" stroke-miterlimit="10" fill="none" fill-rule="evenodd"/></g><g clip-path="url(#clip6)"><text fill="#7D7D7D" font-family="Open Sans,Open Sans_MSFontService,sans-serif" font-weight="300" font-size="12" transform="translate(642.234 559)">4</text></g><g clip-path="url(#clip7)"><text fill="#7D7D7D" font-family="Open Sans,Open Sans_MSFontService,sans-serif" font-weight="300" font-size="12" transform="translate(764.125 558)">56</text></g><g clip-path="url(#clip8)"><text fill="#7D7D7D" font-family="Open Sans,Open Sans_MSFontService,sans-serif" font-weight="300" font-size="12" transform="translate(886.016 548)">578</text></g><g clip-path="url(#clip9)"><text fill="#7D7D7D" font-family="Open Sans,Open Sans_MSFontService,sans-serif" font-weight="300" font-size="12" transform="translate(1006.62 461)">5,053</text></g><g clip-path="url(#clip10)"><text fill="#7D7D7D" font-family="Open Sans,Open Sans_MSFontService,sans-serif" font-weight="300" font-size="12" transform="translate(1128.51 223)">17,290</text></g><g clip-path="url(#clip11)"><text fill="#8F8F8F" font-family="Open Sans,Open Sans_MSFontService,sans-serif" font-weight="300" font-size="12" transform="translate(563.708 572)">0</text></g><g clip-path="url(#clip12)"><text fill="#8F8F8F" font-family="Open Sans,Open Sans_MSFontService,sans-serif" font-weight="300" font-size="12" transform="translate(543.168 533)">2000</text></g><g clip-path="url(#clip13)"><text fill="#8F8F8F" font-family="Open Sans,Open Sans_MSFontService,sans-serif" font-weight="300" font-size="12" transform="translate(543.168 494)">4000</text></g><g clip-path="url(#clip14)"><text fill="#8F8F8F" font-family="Open Sans,Open Sans_MSFontService,sans-serif" font-weight="300" font-size="12" transform="translate(543.168 455)">6000</text></g><g clip-path="url(#clip15)"><text fill="#8F8F8F" font-family="Open Sans,Open Sans_MSFontService,sans-serif" font-weight="300" font-size="12" transform="translate(543.168 416)">8000</text></g><g clip-path="url(#clip16)"><text fill="#8F8F8F" font-family="Open Sans,Open Sans_MSFontService,sans-serif" font-weight="300" font-size="12" transform="translate(536.321 377)">10000</text></g><g clip-path="url(#clip17)"><text fill="#8F8F8F" font-family="Open Sans,Open Sans_MSFontService,sans-serif" font-weight="300" font-size="12" transform="translate(536.321 339)">12000</text></g><g clip-path="url(#clip18)"><text fill="#8F8F8F" font-family="Open Sans,Open Sans_MSFontService,sans-serif" font-weight="300" font-size="12" transform="translate(536.321 300)">14000</text></g><g clip-path="url(#clip19)"><text fill="#8F8F8F" font-family="Open Sans,Open Sans_MSFontService,sans-serif" font-weight="300" font-size="12" transform="translate(536.321 261)">16000</text></g><g clip-path="url(#clip20)"><text fill="#8F8F8F" font-family="Open Sans,Open Sans_MSFontService,sans-serif" font-weight="300" font-size="12" transform="translate(536.321 222)">18000</text></g><g clip-path="url(#clip21)"><text fill="#8F8F8F" font-family="Open Sans,Open Sans_MSFontService,sans-serif" font-weight="300" font-size="12" transform="translate(536.321 183)">20000</text></g><g clip-path="url(#clip22)"><text fill="#8F8F8F" font-family="Open Sans,Open Sans_MSFontService,sans-serif" font-weight="300" font-size="12" transform="translate(633.854 590)">Chia</text></g><g clip-path="url(#clip23)"><text fill="#8F8F8F" font-family="Open Sans,Open Sans_MSFontService,sans-serif" font-weight="300" font-size="12" transform="translate(736.938 590)">Chia at 10EB</text></g><g clip-path="url(#clip24)"><text fill="#8F8F8F" font-family="Open Sans,Open Sans_MSFontService,sans-serif" font-weight="300" font-size="12" transform="translate(860.789 590)">all HDD 2021</text></g><g clip-path="url(#clip25)"><text fill="#8F8F8F" font-family="Open Sans,Open Sans_MSFontService,sans-serif" font-weight="300" font-size="12" transform="translate(994.983 590)">Ethereum</text></g><g clip-path="url(#clip26)"><text fill="#8F8F8F" font-family="Open Sans,Open Sans_MSFontService,sans-serif" font-weight="300" font-size="12" transform="translate(1128.52 590)">Bitcoin</text></g><g clip-path="url(#clip27)"><text fill="#525252" font-family="Open Sans,Open Sans_MSFontService,sans-serif" font-weight="300" font-size="19" transform="translate(721.353 157)">Average Network Power (MegaWatts)</text></g></g></svg>