<svg width="4849" height="2809" xmlns="http://www.w3.org/2000/svg" xmlns:xlink="http://www.w3.org/1999/xlink" overflow="hidden"><defs><clipPath id="clip0"><rect x="1141" y="747" width="4849" height="2809"/></clipPath><clipPath id="clip1"><rect x="1143" y="749" width="4842" height="2803"/></clipPath><clipPath id="clip2"><rect x="2389" y="951" width="3435" height="2436"/></clipPath><clipPath id="clip3"><rect x="1143" y="749" width="4842" height="2803"/></clipPath><clipPath id="clip4"><rect x="1143" y="749" width="4842" height="2803"/></clipPath><clipPath id="clip5"><rect x="1143" y="749" width="4842" height="2803"/></clipPath><clipPath id="clip6"><rect x="1143" y="749" width="4842" height="2803"/></clipPath><clipPath id="clip7"><rect x="1143" y="749" width="4842" height="2803"/></clipPath><clipPath id="clip8"><rect x="1143" y="749" width="4842" height="2803"/></clipPath><clipPath id="clip9"><rect x="1143" y="749" width="4842" height="2803"/></clipPath><clipPath id="clip10"><rect x="1143" y="749" width="4842" height="2803"/></clipPath><clipPath id="clip11"><rect x="1143" y="749" width="4842" height="2803"/></clipPath><clipPath id="clip12"><rect x="1143" y="749" width="4842" height="2803"/></clipPath><clipPath id="clip13"><rect x="1143" y="749" width="4842" height="2803"/></clipPath><clipPath id="clip14"><rect x="1143" y="749" width="4842" height="2803"/></clipPath><clipPath id="clip15"><rect x="1143" y="749" width="4842" height="2803"/></clipPath><clipPath id="clip16"><rect x="1143" y="749" width="4842" height="2803"/></clipPath><clipPath id="clip17"><rect x="1143" y="749" width="4842" height="2803"/></clipPath><clipPath id="clip18"><rect x="1143" y="749" width="4842" height="2803"/></clipPath><clipPath id="clip19"><rect x="1143" y="749" width="4842" height="2803"/></clipPath><clipPath id="clip20"><rect x="1143" y="749" width="4842" height="2803"/></clipPath><clipPath id="clip21"><rect x="1143" y="749" width="4842" height="2803"/></clipPath><clipPath id="clip22"><rect x="1143" y="749" width="4842" height="2803"/></clipPath><clipPath id="clip23"><rect x="1143" y="749" width="4842" height="2803"/></clipPath><clipPath id="clip24"><rect x="1143" y="749" width="4842" height="2803"/></clipPath><clipPath id="clip25"><rect x="1143" y="749" width="4842" height="2803"/></clipPath><clipPath id="clip26"><rect x="1143" y="749" width="4842" height="2803"/></clipPath><clipPath id="clip27"><rect x="1143" y="749" width="4842" height="2803"/></clipPath><clipPath id="clip28"><rect x="1143" y="749" width="4842" height="2803"/></clipPath><clipPath id="clip29"><rect x="1143" y="749" width="4842" height="2803"/></clipPath></defs><g clip-path="url(#clip0)" transform="translate(-1141 -747)"><rect x="1144" y="749" width="4842" height="2803" fill="#FFFFFF" fill-opacity="1"/><g clip-path="url(#clip1)"><path d="M2960.6 951.5 2960.6 3383.5M3532.62 951.5 3532.62 3383.5M4104.63 951.5 4104.63 3383.5M4676.65 951.5 4676.65 3383.5M5248.67 951.5 5248.67 3383.5M5820.5 951.5 5820.5 3383.5" stroke="#D9D9D9" stroke-width="3.4375" stroke-linecap="butt" stroke-linejoin="round" stroke-miterlimit="10" stroke-opacity="1" fill="none" fill-rule="nonzero"/></g><g clip-path="url(#clip2)"><path d="M2403.08 3296.11 2389 3296.11 2389 3200.1 2403.08 3200.1ZM2519.08 3026.1 2389 3026.1 2389 2930.1 2519.08 2930.1ZM2717.09 2756.09 2389 2756.09 2389 2660.09 2717.09 2660.09ZM2764.09 2485.08 2389 2485.08 2389 2390.08 2764.09 2390.08ZM2811.09 2215.07 2389 2215.07 2389 2119.07 2811.09 2119.07ZM2889.09 1945.06 2389 1945.06 2389 1849.06 2889.09 1849.06ZM3104.1 1675.05 2389 1675.05 2389 1579.05 3104.1 1579.05ZM3819.13 1404.05 2389 1404.05 2389 1308.04 3819.13 1308.04ZM5249.17 1134.04 2389 1134.04 2389 1038.03 5249.17 1038.03Z" fill="#4472C4" fill-rule="nonzero" fill-opacity="1"/></g><g clip-path="url(#clip3)"><path d="M0 0 0.000360892 2432" stroke="#D9D9D9" stroke-width="3.4375" stroke-linecap="butt" stroke-linejoin="round" stroke-miterlimit="10" stroke-opacity="1" fill="none" fill-rule="evenodd" transform="matrix(1 0 0 -1 2389.5 3383.5)"/></g><g clip-path="url(#clip4)"><text fill="#404040" fill-opacity="1" font-family="Helvetica,Helvetica_MSFontService,sans-serif" font-style="normal" font-variant="normal" font-weight="400" font-stretch="normal" font-size="92" text-anchor="start" direction="ltr" writing-mode="lr-tb" unicode-bidi="normal" text-decoration="none" transform="matrix(1 0 0 1 2430.91 3274)">0.013</text></g><g clip-path="url(#clip5)"><text fill="#404040" fill-opacity="1" font-family="Helvetica,Helvetica_MSFontService,sans-serif" font-style="normal" font-variant="normal" font-weight="400" font-stretch="normal" font-size="92" text-anchor="start" direction="ltr" writing-mode="lr-tb" unicode-bidi="normal" text-decoration="none" transform="matrix(1 0 0 1 2546.94 3003)">0.114</text></g><g clip-path="url(#clip6)"><text fill="#404040" fill-opacity="1" font-family="Helvetica,Helvetica_MSFontService,sans-serif" font-style="normal" font-variant="normal" font-weight="400" font-stretch="normal" font-size="92" text-anchor="start" direction="ltr" writing-mode="lr-tb" unicode-bidi="normal" text-decoration="none" transform="matrix(1 0 0 1 2744.28 2733)">0.286</text></g><g clip-path="url(#clip7)"><text fill="#404040" fill-opacity="1" font-family="Helvetica,Helvetica_MSFontService,sans-serif" font-style="normal" font-variant="normal" font-weight="400" font-stretch="normal" font-size="92" text-anchor="start" direction="ltr" writing-mode="lr-tb" unicode-bidi="normal" text-decoration="none" transform="matrix(1 0 0 1 2791.55 2463)">0.328</text></g><g clip-path="url(#clip8)"><text fill="#404040" fill-opacity="1" font-family="Helvetica,Helvetica_MSFontService,sans-serif" font-style="normal" font-variant="normal" font-weight="400" font-stretch="normal" font-size="92" text-anchor="start" direction="ltr" writing-mode="lr-tb" unicode-bidi="normal" text-decoration="none" transform="matrix(1 0 0 1 2838.42 2192)">0.369</text></g><g clip-path="url(#clip9)"><text fill="#404040" fill-opacity="1" font-family="Helvetica,Helvetica_MSFontService,sans-serif" font-style="normal" font-variant="normal" font-weight="400" font-stretch="normal" font-size="92" text-anchor="start" direction="ltr" writing-mode="lr-tb" unicode-bidi="normal" text-decoration="none" transform="matrix(1 0 0 1 2917.06 1922)">0.438</text></g><g clip-path="url(#clip10)"><text fill="#404040" fill-opacity="1" font-family="Helvetica,Helvetica_MSFontService,sans-serif" font-style="normal" font-variant="normal" font-weight="400" font-stretch="normal" font-size="92" text-anchor="start" direction="ltr" writing-mode="lr-tb" unicode-bidi="normal" text-decoration="none" transform="matrix(1 0 0 1 3131.53 1652)">0.625</text></g><g clip-path="url(#clip11)"><text fill="#404040" fill-opacity="1" font-family="Helvetica,Helvetica_MSFontService,sans-serif" font-style="normal" font-variant="normal" font-weight="400" font-stretch="normal" font-size="92" text-anchor="start" direction="ltr" writing-mode="lr-tb" unicode-bidi="normal" text-decoration="none" transform="matrix(1 0 0 1 3846.45 1382)">1.250</text></g><g clip-path="url(#clip12)"><text fill="#404040" fill-opacity="1" font-family="Helvetica,Helvetica_MSFontService,sans-serif" font-style="normal" font-variant="normal" font-weight="400" font-stretch="normal" font-size="92" text-anchor="start" direction="ltr" writing-mode="lr-tb" unicode-bidi="normal" text-decoration="none" transform="matrix(1 0 0 1 5276.28 1111)">2.500</text></g><g clip-path="url(#clip13)"><text fill="#595959" fill-opacity="1" font-family="Helvetica,Helvetica_MSFontService,sans-serif" font-style="normal" font-variant="normal" font-weight="400" font-stretch="normal" font-size="92" text-anchor="start" direction="ltr" writing-mode="lr-tb" unicode-bidi="normal" text-decoration="none" transform="matrix(1 0 0 1 2274.41 3502)">0.000</text></g><g clip-path="url(#clip14)"><text fill="#595959" fill-opacity="1" font-family="Helvetica,Helvetica_MSFontService,sans-serif" font-style="normal" font-variant="normal" font-weight="400" font-stretch="normal" font-size="92" text-anchor="start" direction="ltr" writing-mode="lr-tb" unicode-bidi="normal" text-decoration="none" transform="matrix(1 0 0 1 2846.34 3502)">0.500</text></g><g clip-path="url(#clip15)"><text fill="#595959" fill-opacity="1" font-family="Helvetica,Helvetica_MSFontService,sans-serif" font-style="normal" font-variant="normal" font-weight="400" font-stretch="normal" font-size="92" text-anchor="start" direction="ltr" writing-mode="lr-tb" unicode-bidi="normal" text-decoration="none" transform="matrix(1 0 0 1 3418.27 3502)">1.000</text></g><g clip-path="url(#clip16)"><text fill="#595959" fill-opacity="1" font-family="Helvetica,Helvetica_MSFontService,sans-serif" font-style="normal" font-variant="normal" font-weight="400" font-stretch="normal" font-size="92" text-anchor="start" direction="ltr" writing-mode="lr-tb" unicode-bidi="normal" text-decoration="none" transform="matrix(1 0 0 1 3990.2 3502)">1.500</text></g><g clip-path="url(#clip17)"><text fill="#595959" fill-opacity="1" font-family="Helvetica,Helvetica_MSFontService,sans-serif" font-style="normal" font-variant="normal" font-weight="400" font-stretch="normal" font-size="92" text-anchor="start" direction="ltr" writing-mode="lr-tb" unicode-bidi="normal" text-decoration="none" transform="matrix(1 0 0 1 4562.13 3502)">2.000</text></g><g clip-path="url(#clip18)"><text fill="#595959" fill-opacity="1" font-family="Helvetica,Helvetica_MSFontService,sans-serif" font-style="normal" font-variant="normal" font-weight="400" font-stretch="normal" font-size="92" text-anchor="start" direction="ltr" writing-mode="lr-tb" unicode-bidi="normal" text-decoration="none" transform="matrix(1 0 0 1 5134.07 3502)">2.500</text></g><g clip-path="url(#clip19)"><text fill="#595959" fill-opacity="1" font-family="Helvetica,Helvetica_MSFontService,sans-serif" font-style="normal" font-variant="normal" font-weight="400" font-stretch="normal" font-size="92" text-anchor="start" direction="ltr" writing-mode="lr-tb" unicode-bidi="normal" text-decoration="none" transform="matrix(1 0 0 1 5706 3502)">3.000</text></g><g clip-path="url(#clip20)"><text fill="#595959" fill-opacity="1" font-family="Helvetica,Helvetica_MSFontService,sans-serif" font-style="normal" font-variant="normal" font-weight="400" font-stretch="normal" font-size="92" text-anchor="start" direction="ltr" writing-mode="lr-tb" unicode-bidi="normal" text-decoration="none" transform="matrix(1 0 0 1 1423.15 3272)">Consumer NVMe 4TB</text></g><g clip-path="url(#clip21)"><text fill="#595959" fill-opacity="1" font-family="Helvetica,Helvetica_MSFontService,sans-serif" font-style="normal" font-variant="normal" font-weight="400" font-stretch="normal" font-size="92" text-anchor="start" direction="ltr" writing-mode="lr-tb" unicode-bidi="normal" text-decoration="none" transform="matrix(1 0 0 1 1173.33 3002)">Data Center NVMe 30.72TB</text></g><g clip-path="url(#clip22)"><text fill="#595959" fill-opacity="1" font-family="Helvetica,Helvetica_MSFontService,sans-serif" font-style="normal" font-variant="normal" font-weight="400" font-stretch="normal" font-size="92" text-anchor="start" direction="ltr" writing-mode="lr-tb" unicode-bidi="normal" text-decoration="none" transform="matrix(1 0 0 1 1239.61 2732)">Data Center SATA 3.84TB</text></g><g clip-path="url(#clip23)"><text fill="#595959" fill-opacity="1" font-family="Helvetica,Helvetica_MSFontService,sans-serif" font-style="normal" font-variant="normal" font-weight="400" font-stretch="normal" font-size="92" text-anchor="start" direction="ltr" writing-mode="lr-tb" unicode-bidi="normal" text-decoration="none" transform="matrix(1 0 0 1 1647.16 2462)">18TB HDD 7200</text></g><g clip-path="url(#clip24)"><text fill="#595959" fill-opacity="1" font-family="Helvetica,Helvetica_MSFontService,sans-serif" font-style="normal" font-variant="normal" font-weight="400" font-stretch="normal" font-size="92" text-anchor="start" direction="ltr" writing-mode="lr-tb" unicode-bidi="normal" text-decoration="none" transform="matrix(1 0 0 1 1647.16 2191)">16TB HDD 7200</text></g><g clip-path="url(#clip25)"><text fill="#595959" fill-opacity="1" font-family="Helvetica,Helvetica_MSFontService,sans-serif" font-style="normal" font-variant="normal" font-weight="400" font-stretch="normal" font-size="92" text-anchor="start" direction="ltr" writing-mode="lr-tb" unicode-bidi="normal" text-decoration="none" transform="matrix(1 0 0 1 1698.15 1921)">8TB HDD 5400</text></g><g clip-path="url(#clip26)"><text fill="#595959" fill-opacity="1" font-family="Helvetica,Helvetica_MSFontService,sans-serif" font-style="normal" font-variant="normal" font-weight="400" font-stretch="normal" font-size="92" text-anchor="start" direction="ltr" writing-mode="lr-tb" unicode-bidi="normal" text-decoration="none" transform="matrix(1 0 0 1 1698.15 1651)">4TB HDD 5400</text></g><g clip-path="url(#clip27)"><text fill="#595959" fill-opacity="1" font-family="Helvetica,Helvetica_MSFontService,sans-serif" font-style="normal" font-variant="normal" font-weight="400" font-stretch="normal" font-size="92" text-anchor="start" direction="ltr" writing-mode="lr-tb" unicode-bidi="normal" text-decoration="none" transform="matrix(1 0 0 1 1698.15 1380)">4TB HDD 7200</text></g><g clip-path="url(#clip28)"><text fill="#595959" fill-opacity="1" font-family="Helvetica,Helvetica_MSFontService,sans-serif" font-style="normal" font-variant="normal" font-weight="400" font-stretch="normal" font-size="92" text-anchor="start" direction="ltr" writing-mode="lr-tb" unicode-bidi="normal" text-decoration="none" transform="matrix(1 0 0 1 1698.15 1110)">2TB HDD 7200</text></g><g clip-path="url(#clip29)"><text fill="#595959" fill-opacity="1" font-family="Helvetica,Helvetica_MSFontService,sans-serif" font-style="normal" font-variant="normal" font-weight="400" font-stretch="normal" font-size="110" text-anchor="start" direction="ltr" writing-mode="lr-tb" unicode-bidi="normal" text-decoration="none" transform="matrix(1 0 0 1 3326.31 869)">W/TB idle</text></g><rect x="1144.5" y="749.5" width="4842" height="2803" stroke="#D9D9D9" stroke-width="3.4375" stroke-linecap="butt" stroke-linejoin="round" stroke-miterlimit="10" stroke-opacity="1" fill="none"/></g></svg>